# Exported from Wings 3D 0.98.22c
mtllib models/wall.mtl
o cube1
#40 vertices, 30 faces
v -40.0000 4.91592e-3 2.00000
v -40.0000 2.00492 2.00000
v 40.0000 2.00492 2.00000
v 40.0000 4.91592e-3 2.00000
v -40.0000 4.91592e-3 -2.00000
v -40.0000 2.00492 -2.00000
v 40.0000 2.00492 -2.00000
v 40.0000 4.91592e-3 -2.00000
v -40.0000 16.0049 2.00000
v -40.0000 18.0049 2.00000
v 40.0000 18.0049 2.00000
v 40.0000 16.0049 2.00000
v -40.0000 16.0049 -2.00000
v -40.0000 18.0049 -2.00000
v 40.0000 18.0049 -2.00000
v 40.0000 16.0049 -2.00000
v -40.0000 12.0049 2.00000
v -40.0000 14.0049 2.00000
v 40.0000 14.0049 2.00000
v 40.0000 12.0049 2.00000
v -40.0000 12.0049 -2.00000
v -40.0000 14.0049 -2.00000
v 40.0000 14.0049 -2.00000
v 40.0000 12.0049 -2.00000
v -40.0000 8.00492 2.00000
v -40.0000 10.0049 2.00000
v 40.0000 10.0049 2.00000
v 40.0000 8.00492 2.00000
v -40.0000 8.00492 -2.00000
v -40.0000 10.0049 -2.00000
v 40.0000 10.0049 -2.00000
v 40.0000 8.00492 -2.00000
v -40.0000 4.00492 2.00000
v -40.0000 6.00492 2.00000
v 40.0000 6.00492 2.00000
v 40.0000 4.00492 2.00000
v -40.0000 4.00492 -2.00000
v -40.0000 6.00492 -2.00000
v 40.0000 6.00492 -2.00000
v 40.0000 4.00492 -2.00000
vn -0.577350 -0.577350 0.577350
vn -0.577350 0.577350 0.577350
vn 0.577350 0.577350 0.577350
vn 0.577350 -0.577350 0.577350
vn -0.577350 -0.577350 -0.577350
vn -0.577350 0.577350 -0.577350
vn 0.577350 0.577350 -0.577350
vn 0.577350 -0.577350 -0.577350
vn -0.577350 -0.577350 0.577350
vn -0.577350 0.577350 0.577350
vn 0.577350 0.577350 0.577350
vn 0.577350 -0.577350 0.577350
vn -0.577350 -0.577350 -0.577350
vn -0.577350 0.577350 -0.577350
vn 0.577350 0.577350 -0.577350
vn 0.577350 -0.577350 -0.577350
vn -0.577350 -0.577350 0.577350
vn -0.577350 0.577350 0.577350
vn 0.577350 0.577350 0.577350
vn 0.577350 -0.577350 0.577350
vn -0.577350 -0.577350 -0.577350
vn -0.577350 0.577350 -0.577350
vn 0.577350 0.577350 -0.577350
vn 0.577350 -0.577350 -0.577350
vn -0.577350 -0.577350 0.577350
vn -0.577350 0.577350 0.577350
vn 0.577350 0.577350 0.577350
vn 0.577350 -0.577350 0.577350
vn -0.577350 -0.577350 -0.577350
vn -0.577350 0.577350 -0.577350
vn 0.577350 0.577350 -0.577350
vn 0.577350 -0.577350 -0.577350
vn -0.577350 -0.577350 0.577350
vn -0.577350 0.577350 0.577350
vn 0.577350 0.577350 0.577350
vn 0.577350 -0.577350 0.577350
vn -0.577350 -0.577350 -0.577350
vn -0.577350 0.577350 -0.577350
vn 0.577350 0.577350 -0.577350
vn 0.577350 -0.577350 -0.577350
g cube1_color_256_254_000
usemtl color_256_254_000
f 1//1 4//4 3//3 2//2
f 1//1 5//5 8//8 4//4
f 2//2 6//6 5//5 1//1
f 3//3 7//7 6//6 2//2
f 4//4 8//8 7//7 3//3
f 6//6 7//7 8//8 5//5
f 9//9 12//12 11//11 10//10
f 9//9 13//13 16//16 12//12
f 10//10 14//14 13//13 9//9
f 11//11 15//15 14//14 10//10
f 12//12 16//16 15//15 11//11
f 14//14 15//15 16//16 13//13
f 17//17 20//20 19//19 18//18
f 17//17 21//21 24//24 20//20
f 18//18 22//22 21//21 17//17
f 19//19 23//23 22//22 18//18
f 20//20 24//24 23//23 19//19
f 22//22 23//23 24//24 21//21
f 25//25 28//28 27//27 26//26
f 25//25 29//29 32//32 28//28
f 26//26 30//30 29//29 25//25
f 27//27 31//31 30//30 26//26
f 28//28 32//32 31//31 27//27
f 30//30 31//31 32//32 29//29
f 33//33 36//36 35//35 34//34
f 33//33 37//37 40//40 36//36
f 34//34 38//38 37//37 33//33
f 35//35 39//39 38//38 34//34
f 36//36 40//40 39//39 35//35
f 38//38 39//39 40//40 37//37
